<svg id="visual" viewBox="0 0 900 600" width="900" height="600" xmlns="http://www.w3.org/2000/svg" xmlns:xlink="http://www.w3.org/1999/xlink" version="1.1"><path d="M0 103L82 103L82 115L164 115L164 61L245 61L245 91L327 91L327 61L409 61L409 109L491 109L491 97L573 97L573 73L655 73L655 115L736 115L736 49L818 49L818 109L900 109L900 109L900 0L900 0L818 0L818 0L736 0L736 0L655 0L655 0L573 0L573 0L491 0L491 0L409 0L409 0L327 0L327 0L245 0L245 0L164 0L164 0L82 0L82 0L0 0Z" fill="#fa7268"></path><path d="M0 205L82 205L82 187L164 187L164 139L245 139L245 187L327 187L327 163L409 163L409 193L491 193L491 163L573 163L573 115L655 115L655 199L736 199L736 91L818 91L818 181L900 181L900 151L900 107L900 107L818 107L818 47L736 47L736 113L655 113L655 71L573 71L573 95L491 95L491 107L409 107L409 59L327 59L327 89L245 89L245 59L164 59L164 113L82 113L82 101L0 101Z" fill="#ea5e66"></path><path d="M0 319L82 319L82 397L164 397L164 385L245 385L245 367L327 367L327 355L409 355L409 397L491 397L491 349L573 349L573 289L655 289L655 295L736 295L736 235L818 235L818 337L900 337L900 325L900 149L900 179L818 179L818 89L736 89L736 197L655 197L655 113L573 113L573 161L491 161L491 191L409 191L409 161L327 161L327 185L245 185L245 137L164 137L164 185L82 185L82 203L0 203Z" fill="#d84a64"></path><path d="M0 553L82 553L82 481L164 481L164 475L245 475L245 475L327 475L327 451L409 451L409 499L491 499L491 463L573 463L573 427L655 427L655 529L736 529L736 475L818 475L818 553L900 553L900 535L900 323L900 335L818 335L818 233L736 233L736 293L655 293L655 287L573 287L573 347L491 347L491 395L409 395L409 353L327 353L327 365L245 365L245 383L164 383L164 395L82 395L82 317L0 317Z" fill="#c53762"></path><path d="M0 601L82 601L82 601L164 601L164 601L245 601L245 601L327 601L327 601L409 601L409 601L491 601L491 601L573 601L573 601L655 601L655 601L736 601L736 601L818 601L818 601L900 601L900 601L900 533L900 551L818 551L818 473L736 473L736 527L655 527L655 425L573 425L573 461L491 461L491 497L409 497L409 449L327 449L327 473L245 473L245 473L164 473L164 479L82 479L82 551L0 551Z" fill="#b0235f"></path></svg>